<svg xmlns="http://www.w3.org/2000/svg" width="24" height="24" fill="none" stroke="currentColor" stroke-width="2" stroke-linecap="round" stroke-linejoin="round" class="icon icon-tabler icons-tabler-outline icon-tabler-volume"><path d="M9.634 3.17c-.321.113-.55.266-.759.508A194.5 194.5 0 0 0 7.114 5.93L5.509 8l-.884.002c-.702.002-.939.017-1.148.071-.671.176-1.239.75-1.417 1.435-.089.339-.089 4.645 0 4.984.093.36.25.626.536.912.509.51.803.596 2.027.596h.886l1.605 2.07a185.236 185.236 0 0 0 1.761 2.252c.658.763 1.873.809 2.588.099.126-.125.263-.323.36-.519l.157-.318V4.416l-.156-.316a1.7 1.7 0 0 0-.841-.843c-.289-.142-.345-.156-.699-.167-.32-.01-.428.003-.65.08m7.748.887c-.583.217-.847.879-.564 1.417.031.058.285.322.566.585.877.825 1.375 1.486 1.838 2.44.8 1.649 1.011 3.385.633 5.192-.253 1.21-.903 2.532-1.704 3.469-.141.165-.493.523-.782.796-.578.545-.659.674-.66 1.044-.001.525.391.94.933.99.31.028.559-.092.998-.478 1.772-1.559 2.926-3.683 3.306-6.08.102-.639.102-2.225 0-2.864-.33-2.086-1.264-4.002-2.657-5.454-.426-.443-.962-.909-1.165-1.013-.187-.095-.546-.117-.742-.044M9.99 15.243l-.01 3.243-1.65-2.121c-1.381-1.777-1.68-2.14-1.84-2.233l-.19-.112-1.15-.013L4 13.995v-3.991l1.131-.012c1.121-.012 1.133-.013 1.33-.113.18-.092.355-.301 1.859-2.233l1.66-2.132.01 3.243c.006 1.784.006 4.702 0 6.486m4.744-8.205c-.602.144-.919.911-.601 1.454.055.092.253.298.44.458 1.886 1.604 1.881 4.503-.011 6.113-.392.333-.518.525-.55.834a.991.991 0 0 0 .876 1.09c.295.03.504-.037.799-.258.969-.724 1.786-1.96 2.114-3.197a6.05 6.05 0 0 0-.949-5.06c-.411-.573-1.188-1.296-1.522-1.415a1.137 1.137 0 0 0-.596-.019" fill="#000" fill-rule="evenodd" stroke="none"/></svg>
