<svg xmlns="http://www.w3.org/2000/svg" width="24" height="24" fill="none" stroke="currentColor" stroke-width="2" stroke-linecap="round" stroke-linejoin="round" class="icon icon-tabler icons-tabler-outline icon-tabler-volume-3"><path d="M9.634 3.17c-.321.113-.55.266-.759.508A194.5 194.5 0 0 0 7.114 5.93L5.509 8l-.884.002c-.702.002-.939.017-1.148.071-.671.176-1.239.75-1.417 1.435-.089.339-.089 4.645 0 4.984.093.36.25.626.536.912.509.51.803.596 2.027.596h.886l1.605 2.07a185.236 185.236 0 0 0 1.761 2.252c.658.763 1.873.809 2.588.099.126-.125.263-.323.36-.519l.157-.318V4.416l-.156-.316a1.7 1.7 0 0 0-.841-.843c-.289-.142-.345-.156-.699-.167-.32-.01-.428.003-.65.08m.356 12.073-.01 3.243-1.65-2.121c-1.381-1.777-1.68-2.14-1.84-2.233l-.19-.112-1.15-.013L4 13.995v-3.991l1.131-.012c1.121-.012 1.133-.013 1.33-.113.18-.092.355-.301 1.859-2.233l1.66-2.132.01 3.243c.006 1.784.006 4.702 0 6.486m5.68-6.182c-.222.081-.42.248-.542.455-.092.156-.108.229-.107.484 0 .213.022.34.075.44.04.077.39.46.777.85l.704.71-.704.71c-.387.391-.734.771-.772.845-.229.453-.045 1.046.407 1.312.165.097.234.113.492.112.213 0 .34-.022.44-.075.077-.04.459-.39.85-.777l.71-.704.71.704c.391.387.773.737.85.777.1.053.227.075.44.075.258.001.327-.015.492-.112.222-.13.409-.369.473-.603a1.187 1.187 0 0 0-.066-.709c-.038-.074-.385-.454-.772-.845l-.704-.71.704-.71c.387-.39.737-.773.777-.85.053-.1.075-.227.075-.44.001-.255-.015-.328-.107-.484a1 1 0 0 0-1.215-.449c-.166.056-.312.18-.927.787l-.73.72-.73-.72c-.615-.607-.761-.731-.927-.787a.998.998 0 0 0-.673-.006" fill="#000" fill-rule="evenodd" stroke="none"/></svg>
