<svg xmlns="http://www.w3.org/2000/svg" width="24" height="24" fill="none" stroke="currentColor" stroke-width="2" stroke-linecap="round" stroke-linejoin="round" class="icon icon-tabler icons-tabler-outline icon-tabler-microphone-off"><path d="M11.358 1.061c-1.633.255-2.937 1.519-3.279 3.18-.12.585-.099 1 .065 1.267a.998.998 0 0 0 1.707.007c.092-.149.121-.257.15-.56.046-.482.121-.725.313-1.018.496-.756 1.347-1.089 2.209-.864.689.18 1.272.787 1.418 1.476.087.408.086 5.425-.001 5.877-.087.453-.077.644.044.886.306.615 1.065.747 1.57.274.169-.16.257-.333.349-.686.066-.256.074-.538.086-3.266.014-2.871.011-3-.067-3.383-.201-.987-.723-1.834-1.484-2.408a3.945 3.945 0 0 0-1.833-.785 3.728 3.728 0 0 0-1.247.003m-8.688 1c-.222.081-.42.248-.542.455-.091.156-.108.23-.108.484s.016.327.107.48c.061.101 1.368 1.439 2.99 3.06L8 9.42v.46c0 .901.218 1.643.699 2.381.359.549 1.173 1.207 1.783 1.44.581.222.82.267 1.475.281l.617.013.792.791c.436.435.779.804.763.819-.037.035-.51.18-.825.252a6.39 6.39 0 0 1-2.492.026c-1.545-.317-2.937-1.251-3.79-2.543-.628-.95-.936-1.899-1.017-3.128-.03-.46-.048-.55-.139-.706-.385-.656-1.348-.654-1.734.003-.133.228-.162.612-.095 1.259A8.17 8.17 0 0 0 5.674 14.9c.276.361.985 1.077 1.346 1.36 1.02.797 2.243 1.362 3.427 1.584.249.047.475.091.503.099.038.011.05.253.05 1.036V20H9.446c-1.688 0-1.788.011-2.064.221-.08.061-.195.194-.254.295-.091.156-.108.23-.108.484 0 .256.016.328.111.489.125.213.318.375.539.454.222.079 8.438.079 8.66 0 .221-.079.414-.241.539-.454.095-.161.111-.233.111-.489 0-.254-.017-.328-.108-.484a1.209 1.209 0 0 0-.254-.295c-.276-.21-.376-.221-2.064-.221H13v-2.08l.11-.001c.378-.002 1.569-.346 2.18-.629l.395-.184 2.368 2.363c1.302 1.3 2.43 2.396 2.507 2.436.099.052.228.074.44.074.258.001.327-.015.492-.112.476-.28.647-.9.373-1.359-.055-.092-4.2-4.265-9.212-9.273-8.422-8.415-9.128-9.11-9.31-9.17a1.015 1.015 0 0 0-.673-.004M18.725 9.04c-.202.048-.449.239-.579.449-.104.169-.118.237-.15.699-.087 1.258-.274 1.851-.992 3.139-.161.288-.196.556-.109.819.224.674 1.055.918 1.584.466.305-.261.872-1.339 1.134-2.154.329-1.022.48-2.331.323-2.792-.162-.474-.692-.748-1.211-.626" fill="#000" fill-rule="evenodd" stroke="none"/></svg>
