<svg xmlns="http://www.w3.org/2000/svg" width="24" height="24" fill="none" stroke="currentColor" stroke-width="2" stroke-linecap="round" stroke-linejoin="round" class="icon icon-tabler icons-tabler-outline icon-tabler-volume-off"><path d="M2.67 2.061c-.222.081-.42.248-.542.455-.092.156-.108.229-.107.484 0 .212.022.341.074.44.04.077.93.999 1.976 2.048l1.903 1.908-.231.302L5.512 8l-.886.002c-.703.002-.94.017-1.149.071-.671.176-1.239.75-1.417 1.435-.089.339-.089 4.645 0 4.984.093.36.25.626.536.912.509.51.803.596 2.027.596h.886l1.605 2.07a185.236 185.236 0 0 0 1.761 2.252c.658.763 1.873.809 2.588.099.126-.125.263-.323.36-.519l.157-.318.011-3.081.011-3.08 1.053 1.052 1.053 1.052-.052.147c-.108.301-.042.68.166.952.231.303.724.45 1.084.324l.167-.058.722.724.723.724-.106.213c-.322.649.109 1.38.847 1.436.208.016.272.002.469-.098l.227-.116.993.995c.545.547 1.073 1.044 1.172 1.103.152.091.226.107.48.107.257 0 .327-.016.492-.113.476-.28.647-.9.373-1.359-.055-.092-4.2-4.265-9.212-9.273-8.422-8.415-9.128-9.11-9.31-9.17a1.015 1.015 0 0 0-.673-.004m7.01 1.092c-.291.097-.426.171-.628.345-.203.175-.827.994-.912 1.195-.07.169-.078.462-.017.681.054.194.328.496.537.591.382.175.923.041 1.192-.294l.128-.16.02.898.02.898.121.196a.998.998 0 0 0 1.718 0l.121-.197v-2.89l-.156-.316a1.7 1.7 0 0 0-.841-.843c-.29-.143-.344-.155-.699-.166-.289-.008-.438.007-.604.062m7.702.904c-.583.217-.847.879-.564 1.417.03.058.302.339.603.624.988.932 1.601 1.819 2.061 2.982.381.961.532 1.792.532 2.92 0 1.322-.188 2.176-.756 3.44-.212.473-.241.723-.118 1.03.085.211.397.499.611.562.356.107.742.02.991-.224.407-.401 1.013-2.112 1.206-3.406.107-.719.096-2.21-.023-2.922-.284-1.708-.901-3.163-1.909-4.506-.551-.735-1.496-1.669-1.892-1.873a1.126 1.126 0 0 0-.742-.044m-2.648 2.981c-.45.108-.772.583-.722 1.068.031.296.174.524.485.772.84.668 1.397 1.721 1.489 2.816a5.46 5.46 0 0 1-.026.827c-.067.657-.032.807.258 1.104a.949.949 0 0 0 1.124.2c.368-.171.517-.424.602-1.025.256-1.796-.379-3.702-1.666-4.996-.717-.722-1.046-.885-1.544-.766M8.71 10.13 10 11.421l-.01 3.532-.01 3.533-1.66-2.13c-1.501-1.926-1.679-2.139-1.86-2.233-.199-.103-.205-.103-1.33-.115L4 13.995v-3.991l1.131-.012c1.418-.015 1.356.007 1.889-.682a6.7 6.7 0 0 1 .38-.467c.011-.002.601.578 1.31 1.287" fill="#000" fill-rule="evenodd" stroke="none"/></svg>
